HIERARCHY
ROOT Hips
{
	OFFSET 0.00 0.00 0.00
	CHANNELS 6 Xposition Yposition Zposition Xrotation Yrotation Zrotation
	JOINT LeftUpLeg
	{
		OFFSET 3.10215 0.00000 0.00000
		CHANNELS 3 Xrotation Yrotation Zrotation
		JOINT LeftLeg
		{
			OFFSET 0.00000 -16.83331 0.00000
			CHANNELS 3 Xrotation Yrotation Zrotation
			JOINT LeftFoot
			{
				OFFSET 0.00000 -15.53879 0.00000
				CHANNELS 3 Xrotation Yrotation Zrotation
				JOINT LeftToeBase
				{
					OFFSET 0.00000 -1.57366 5.87297
					CHANNELS 3 Xrotation Yrotation Zrotation
					End Site
					{
						OFFSET 0.00000 0.00000 2.95275
					}
				}
			}
		}
	}
	JOINT RightUpLeg
	{
		OFFSET -3.10215 0.00000 0.00000
		CHANNELS 3 Xrotation Yrotation Zrotation
		JOINT RightLeg
		{
			OFFSET 0.00000 -16.83331 0.00000
			CHANNELS 3 Xrotation Yrotation Zrotation
			JOINT RightFoot
			{
				OFFSET 0.00000 -15.53879 0.00000
				CHANNELS 3 Xrotation Yrotation Zrotation
				JOINT RightToeBase
				{
					OFFSET 0.00000 -1.57366 5.87297
					CHANNELS 3 Xrotation Yrotation Zrotation
					End Site
					{
						OFFSET 0.00000 0.00000 2.95275
					}
				}
			}
		}
	}
	JOINT Spine
	{
		OFFSET 0.00000 0.03937 0.00000
		CHANNELS 3 Xrotation Yrotation Zrotation
		JOINT Spine1
		{
			OFFSET 0.00000 8.31046 0.00000
			CHANNELS 3 Xrotation Yrotation Zrotation
			JOINT Neck
			{
				OFFSET 0.00000 6.25463 0.00000
				CHANNELS 3 Xrotation Yrotation Zrotation
				JOINT Head
				{
					OFFSET 0.00000 8.60817 0.00000
					CHANNELS 3 Xrotation Yrotation Zrotation
					End Site
					{
						OFFSET 0.00000 4.52755 0.00000
					}
				}
			}
			JOINT LeftShoulder
			{
				OFFSET 0.00000 6.25463 0.00000
				CHANNELS 3 Xrotation Yrotation Zrotation
				JOINT LeftArm
				{
					OFFSET 7.44857 -0.00003 0.00000
					CHANNELS 3 Xrotation Yrotation Zrotation
					JOINT LeftForeArm
					{
						OFFSET 10.73545 -0.00004 0.00000
						CHANNELS 3 Xrotation Yrotation Zrotation
						JOINT LeftHand
						{
							OFFSET 10.15840 -0.00004 0.00000
							CHANNELS 3 Xrotation Yrotation Zrotation
							JOINT LeftHandThumb
							{
								OFFSET 0.00000 0.00000 0.00000
								CHANNELS 3 Xrotation Yrotation Zrotation
								End Site
								{
									OFFSET 0.00000 0.00000 3.93700
								}
							}
							JOINT L_Wrist_End
							{
								OFFSET 3.93700 -0.00001 0.00000
								CHANNELS 3 Xrotation Yrotation Zrotation
							}
						}
					}
				}
			}
			JOINT RightShoulder
			{
				OFFSET 0.00000 6.25463 0.00000
				CHANNELS 3 Xrotation Yrotation Zrotation
				JOINT RightArm
				{
					OFFSET -7.44857 -0.00003 0.00000
					CHANNELS 3 Xrotation Yrotation Zrotation
					JOINT RightForeArm
					{
						OFFSET -10.73545 -0.00004 0.00000
						CHANNELS 3 Xrotation Yrotation Zrotation
						JOINT RightHand
						{
							OFFSET -10.15840 -0.00004 0.00000
							CHANNELS 3 Xrotation Yrotation Zrotation
							JOINT RightHandThumb
							{
								OFFSET 0.00000 0.00000 0.00000
								CHANNELS 3 Xrotation Yrotation Zrotation
								End Site
								{
									OFFSET 0.00000 0.00000 3.93700
								}
							}
							JOINT R_Wrist_End
							{
								OFFSET -5.39369 -0.00002 0.00000
								CHANNELS 3 Xrotation Yrotation Zrotation
							}
						}
					}
				}
			}
		}
	}
}
MOTION
Frames: 16
Frame Time: 0.008333
 88.5546 32.3192 -40.8459 171.9498 -35.2520 171.3794 11.5202 -11.7032 -7.1594 -1.0068 0.0000 -0.0000 -16.9950 4.0190 -7.7722 -3.4169 0.0000 0.0000 -32.9225 1.3061 -8.6362 19.4433 0.0000 -0.0000 -12.2804 1.0479 7.7350 1.9300 -0.0000 -0.0000 -3.4937 0.2510 -1.8618 0.5371 -0.2603 -2.7646 21.4164 10.5923 2.6256 -24.3496 -7.7912 -2.4810 17.5942 -8.9653 24.5978 -18.8502 -22.5242 -87.7214 -0.0004 -61.6081 -0.0002 -1.8382 -2.2022 4.1698 0.0000 0.0000 -0.0000 0.0000 0.0000 -0.0000 17.0632 -2.2565 -17.1181 4.7909 10.5205 87.9042 -0.0001 22.0638 0.0000 -22.0441 15.2822 20.8506 0.0000 -0.0000 0.0000 0.0000 -0.0000 0.0000
 88.3543 32.2783 -41.2114 171.9743 -36.1925 171.2877 12.3711 -11.4866 -6.8017 -0.6822 0.0000 -0.0000 -17.0981 3.1589 -8.2081 -3.7847 0.0000 0.0000 -32.2104 0.5658 -8.5147 15.3574 -0.0000 0.0000 -12.1338 1.8787 9.1427 1.7381 0.0000 -0.0000 -3.4480 0.1681 -2.0036 0.8555 -0.3368 -2.5066 21.3066 10.4580 2.7227 -24.6809 -7.9556 -2.5953 17.5758 -9.1943 24.6849 -19.1682 -22.2774 -87.7342 -0.0004 -61.5947 -0.0002 -1.8587 -2.1501 4.0172 0.0000 0.0000 -0.0000 0.0000 0.0000 -0.0000 17.0648 -2.4107 -17.0711 4.8069 10.2476 87.6458 -0.0001 22.2192 0.0000 -22.1126 15.2327 20.8183 0.0000 0.0000 0.0000 0.0000 0.0000 0.0000
 88.1317 32.2284 -41.5956 171.7512 -36.7394 171.1345 13.0214 -10.9158 -6.5869 -0.3630 0.0000 0.0000 -17.2855 2.2820 -9.0397 -3.2480 -0.0000 -0.0000 -31.8104 0.0415 -8.2784 11.6924 -0.0000 0.0000 -12.1349 2.5813 10.7713 2.0006 -0.0000 0.0000 -3.7757 0.2859 -2.1036 1.2239 -0.2333 -2.4349 21.1948 10.2448 2.8661 -24.8953 -8.0522 -2.5899 17.6143 -9.3615 24.8932 -19.4901 -22.1093 -87.7870 -0.0004 -61.4515 -0.0002 -1.9902 -2.2890 4.0252 0.0000 0.0000 -0.0000 0.0000 0.0000 -0.0000 17.1008 -2.5612 -16.9966 4.8679 9.9638 87.4229 -0.0001 22.4742 0.0000 -22.2905 15.1929 20.9885 0.0000 -0.0000 0.0000 0.0000 -0.0000 0.0000
 87.9184 32.1855 -41.9612 171.5809 -37.7086 170.9718 13.5309 -10.9525 -6.2531 0.2978 0.0000 -0.0000 -17.5267 1.6131 -9.7981 -3.0902 0.0000 0.0000 -31.2733 -0.7125 -8.1904 8.4194 0.0000 -0.0000 -12.1902 3.0124 12.1814 2.3240 -0.0000 -0.0000 -3.8656 0.1028 -2.2057 1.4709 -0.4177 -2.3236 21.1041 10.2457 2.9496 -25.1154 -8.1691 -2.6496 17.6022 -9.5012 25.0223 -19.6287 -21.7562 -87.8227 -0.0004 -61.2895 -0.0002 -2.0790 -2.3562 3.9605 0.0000 0.0000 0.0000 0.0000 0.0000 0.0000 17.1466 -2.5348 -17.0023 4.8729 9.7429 87.2032 -0.0001 22.7096 0.0000 -22.5351 15.3260 21.0989 0.0000 0.0000 -0.0000 0.0000 0.0000 -0.0000
 87.6999 32.1348 -42.3127 171.3090 -38.1417 170.8981 13.7586 -10.6002 -6.2181 1.1294 0.0000 0.0000 -17.6441 0.9297 -10.1923 -3.7334 0.0000 -0.0000 -31.1119 -1.1350 -7.9695 5.8263 -0.0000 -0.0000 -12.2442 3.5104 13.5118 1.8012 -0.0000 0.0000 -3.8342 0.1567 -2.2695 1.2890 -0.3593 -2.3459 20.9376 10.1930 2.9279 -24.9465 -8.3275 -2.6134 17.6578 -9.4403 25.1356 -19.7466 -21.5864 -87.8699 -0.0004 -60.9523 -0.0002 -1.9692 -2.6259 3.2891 -0.0000 -0.0000 -0.0000 -0.0000 -0.0000 -0.0000 17.1716 -2.6171 -17.1120 5.0314 9.7428 87.0443 -0.0001 23.1634 0.0000 -22.5726 15.3467 20.9105 -0.0000 0.0000 -0.0000 -0.0000 0.0000 -0.0000
 87.4720 32.0957 -42.6775 171.0238 -39.0177 170.6844 13.9754 -10.8203 -5.9393 2.1324 -0.0000 0.0000 -17.8376 0.4963 -11.0435 -3.6798 0.0000 -0.0000 -30.7583 -1.6988 -7.8269 3.7204 0.0000 -0.0000 -12.6364 3.6082 14.2416 2.1612 -0.0000 0.0000 -3.9131 0.0167 -2.3273 1.3423 -0.5001 -2.2810 20.8955 10.2038 2.9623 -25.1151 -8.5108 -2.6160 17.6497 -9.5723 25.2781 -19.7588 -21.1756 -88.0056 -0.0004 -60.5780 -0.0002 -2.0991 -2.7055 3.1769 0.0000 -0.0000 -0.0000 0.0000 -0.0000 -0.0000 17.2311 -2.6883 -17.1317 5.0701 9.5646 86.8211 -0.0001 23.5423 0.0000 -22.7997 15.4425 21.0178 -0.0000 -0.0000 -0.0000 -0.0000 -0.0000 -0.0000
 87.2397 32.0546 -43.0348 170.8038 -39.4019 170.6260 14.0735 -10.5937 -5.9199 3.2574 0.0000 -0.0000 -17.8019 -0.0302 -11.4803 -4.7204 -0.0000 0.0000 -30.6862 -1.9292 -7.5106 2.5625 -0.0000 0.0000 -13.0356 3.7337 15.1082 1.6849 0.0000 -0.0000 -3.8946 0.0743 -2.3738 1.1788 -0.4393 -2.3033 20.8003 10.1735 2.9394 -24.9883 -8.6131 -2.6239 17.7354 -9.4449 25.3565 -19.8935 -20.8840 -88.1216 -0.0004 -60.0212 -0.0002 -2.1173 -2.6246 2.7126 -0.0000 -0.0000 -0.0000 -0.0000 -0.0000 -0.0000 17.2900 -2.7835 -17.2358 5.0934 9.4290 86.7347 -0.0001 23.9967 0.0000 -22.2464 15.7383 20.3442 0.0000 -0.0000 -0.0000 0.0000 -0.0000 -0.0000
 87.0001 32.0368 -43.4388 170.7505 -40.7351 170.1731 14.5788 -11.1605 -5.0903 4.4168 0.0000 -0.0000 -17.7884 -0.4723 -12.1695 -5.8490 0.0000 -0.0000 -29.9749 -3.0130 -7.1226 1.6524 0.0000 0.0000 -13.4688 3.3955 15.1226 1.5994 -0.0000 0.0000 -3.9659 -0.3413 -2.4409 1.5875 -0.8418 -1.7881 20.7822 10.2295 3.0419 -25.4653 -8.7002 -2.8223 17.6424 -9.6190 25.4598 -19.7630 -20.2154 -88.4698 -0.0004 -59.5333 -0.0002 -2.2301 -2.6629 3.2762 -0.0000 -0.0000 -0.0000 -0.0000 -0.0000 -0.0000 17.1080 -2.6403 -17.1191 5.4488 9.1542 86.2046 -0.0001 24.6502 0.0000 -22.5790 15.7755 20.2650 -0.0000 0.0000 0.0000 -0.0000 0.0000 0.0000
 86.7418 32.0097 -43.8069 170.5047 -41.5616 170.0309 14.5802 -11.3466 -4.8814 5.8981 -0.0000 0.0000 -17.6732 -1.0023 -12.6326 -6.9881 0.0000 0.0000 -29.8453 -3.5781 -6.9552 1.8230 0.0000 0.0000 -13.8916 3.1644 15.5027 1.3391 0.0000 0.0000 -4.0281 -0.3918 -2.4858 1.6274 -0.8916 -1.7197 20.7123 10.1450 3.0342 -25.5160 -8.9783 -2.8275 17.7745 -9.7007 25.5989 -19.9062 -19.8993 -88.6731 -0.0003 -58.7951 -0.0002 -2.3855 -2.7137 3.6530 0.0000 -0.0000 0.0000 0.0000 -0.0000 0.0000 17.0830 -2.8715 -17.1119 5.5781 8.9428 85.9473 -0.0001 25.1756 0.0000 -22.7637 15.9124 20.1123 0.0000 -0.0000 0.0000 0.0000 -0.0000 0.0000
 86.4725 31.9923 -44.1929 170.3576 -42.3207 169.7504 14.7332 -11.6014 -4.4829 7.3073 0.0000 0.0000 -17.3868 -1.3607 -13.1728 -8.2815 -0.0000 0.0000 -29.6051 -3.9021 -6.6615 2.5649 0.0000 0.0000 -13.8740 3.1443 17.1034 0.8953 -0.0000 -0.0000 -4.1200 -0.5911 -2.4203 1.7296 -1.0919 -1.5252 20.6913 10.3103 2.9360 -25.6235 -9.1492 -2.9414 17.5872 -9.7905 25.5345 -19.3910 -19.2771 -88.8949 -0.0003 -58.1757 -0.0002 -2.4337 -2.7178 4.1832 -0.0000 0.0000 -0.0000 -0.0000 0.0000 -0.0000 17.1182 -2.8081 -17.1770 5.6019 8.7021 85.6343 -0.0001 25.6860 0.0000 -22.6550 15.9781 20.0374 -0.0000 -0.0000 -0.0000 -0.0000 -0.0000 -0.0000
 86.1982 31.9821 -44.5764 170.1795 -42.9306 169.4124 14.7576 -11.6744 -4.0819 8.8923 0.0000 -0.0000 -17.0438 -1.7971 -13.7774 -9.4789 0.0000 0.0000 -29.4600 -3.9775 -6.3332 3.6756 -0.0000 -0.0000 -13.4212 4.4326 17.9559 1.5245 0.0000 0.0000 -4.1596 -0.6555 -2.2788 1.6649 -1.1590 -1.3514 20.7516 10.4072 2.8453 -25.8107 -9.3915 -3.0662 17.6870 -9.7881 25.5074 -19.1633 -18.7431 -89.1038 -0.0003 -57.4356 -0.0002 -2.7860 -2.6321 4.2639 0.0000 -0.0000 0.0000 0.0000 -0.0000 0.0000 17.1142 -2.8391 -17.1778 5.7246 8.3730 85.3143 -0.0001 26.1842 0.0000 -22.6101 16.1094 19.9588 -0.0000 0.0000 -0.0000 -0.0000 0.0000 -0.0000
 85.9182 31.9708 -44.9627 169.9988 -43.4899 169.1338 14.6326 -11.6868 -3.7894 10.7506 -0.0000 0.0000 -16.6601 -2.2235 -14.3410 -10.8880 -0.0000 0.0000 -29.3695 -3.9641 -6.0149 5.0788 0.0000 -0.0000 -12.9577 5.9017 17.8988 1.7053 -0.0000 -0.0000 -4.1932 -0.6837 -2.1407 1.5838 -1.1917 -1.2675 20.7447 10.5469 2.7056 -25.9551 -9.6658 -3.0521 17.6755 -9.7348 25.5366 -18.8574 -18.2509 -89.4040 -0.0003 -56.5167 -0.0002 -3.1027 -2.8644 4.3555 -0.0000 0.0000 -0.0000 -0.0000 0.0000 -0.0000 16.9871 -2.9006 -17.1573 5.9100 8.1971 84.9934 -0.0001 26.6205 0.0000 -22.8439 16.1737 19.9963 -0.0000 -0.0000 0.0000 -0.0000 -0.0000 0.0000
 85.6307 31.9665 -45.3696 169.8090 -44.0016 168.6173 14.5504 -11.5719 -3.2292 12.5975 0.0000 -0.0000 -15.9124 -2.7732 -15.2377 -12.6724 0.0000 -0.0000 -29.0499 -3.5641 -5.4514 6.0735 -0.0000 0.0000 -12.2689 7.2355 17.6479 1.7483 0.0000 -0.0000 -4.2919 -0.7552 -1.8379 1.4620 -1.2757 -1.1362 20.7860 10.6190 2.6211 -25.9153 -9.8047 -3.1741 17.6168 -9.7543 25.4706 -18.1915 -17.6853 -89.6077 -0.0003 -55.7240 -0.0002 -3.5664 -2.7098 4.8142 -0.0000 0.0000 -0.0000 -0.0000 0.0000 -0.0000 16.9944 -2.8286 -17.1283 6.0119 7.8776 84.6975 -0.0001 27.0318 0.0000 -22.8853 16.3962 19.8209 -0.0000 0.0000 -0.0000 -0.0000 0.0000 -0.0000
 85.3341 31.9595 -45.7547 169.4812 -44.3957 168.1904 14.1408 -11.6177 -2.9573 14.7676 -0.0000 0.0000 -15.6457 -2.9861 -16.0124 -9.5445 -0.0000 0.0000 -28.7156 -2.3479 -5.0746 6.4028 0.0000 -0.0000 -11.0174 7.5448 19.6391 3.2105 0.0000 -0.0000 -4.3684 -0.8029 -1.5924 1.1412 -1.3359 -1.0854 20.8949 10.7468 2.4847 -25.9645 -9.9544 -3.3513 17.6158 -9.6621 25.3858 -17.5305 -17.1112 -89.8542 -0.0003 -54.8250 -0.0002 -4.1867 -2.8277 4.7215 -0.0000 0.0000 -0.0000 -0.0000 0.0000 -0.0000 17.0489 -2.7566 -17.2038 6.0291 7.6162 84.4610 -0.0001 27.3435 0.0000 -23.0561 16.6232 19.7729 0.0000 0.0000 -0.0000 0.0000 0.0000 -0.0000
 85.0374 31.9600 -46.1465 169.2206 -44.8247 167.7151 13.6970 -11.3878 -2.5652 17.0457 0.0000 0.0000 -14.6111 -3.5616 -16.4237 -11.8717 0.0000 -0.0000 -28.3449 -0.4638 -4.6743 6.9685 0.0000 0.0000 -9.7414 7.3523 21.6953 3.3618 -0.0000 -0.0000 -4.3869 -0.8138 -1.2827 0.8447 -1.3623 -1.0208 20.9049 10.7678 2.3864 -25.9040 -10.1213 -3.5129 17.6420 -9.5561 25.3081 -16.9332 -16.6633 -90.0659 -0.0003 -53.8421 -0.0001 -5.1248 -2.8350 5.1355 -0.0000 0.0000 -0.0000 -0.0000 0.0000 -0.0000 17.0091 -2.7701 -17.2153 6.0951 7.3440 84.2166 -0.0001 27.6380 0.0000 -23.1782 16.7651 19.7391 0.0000 -0.0000 0.0000 0.0000 -0.0000 0.0000
 84.7378 31.9693 -46.5286 169.0151 -45.2265 167.3405 13.0750 -11.0652 -2.2845 19.6354 0.0000 0.0000 -13.3216 -4.0938 -16.8265 -14.1764 0.0000 0.0000 -27.9633 1.7120 -4.4190 7.7741 -0.0000 -0.0000 -8.5292 6.7613 22.8898 2.9884 0.0000 -0.0000 -4.3454 -0.7764 -1.0074 0.5950 -1.3372 -0.9496 20.8539 10.8023 2.2372 -25.9106 -10.3580 -3.6747 17.6538 -9.4050 25.1801 -16.4202 -16.2503 -90.2487 -0.0003 -52.7246 -0.0001 -5.5046 -2.8116 5.9054 -0.0000 -0.0000 -0.0000 -0.0000 -0.0000 -0.0000 16.8814 -2.9037 -17.1886 6.0859 7.0203 83.9766 -0.0001 27.8839 0.0000 -23.1343 16.9196 19.5795 -0.0000 -0.0000 -0.0000 -0.0000 -0.0000 -0.0000
